<svg width="1707" height="637" viewBox="0 0 1707 637" fill="none" xmlns="http://www.w3.org/2000/svg">
<path d="M739.745 26.9894C728.942 29.4198 719.474 34.92 709.339 44.6413C696.936 56.6649 690.802 67.9212 686.801 86.3405C683.467 101.306 681.867 135.458 683.734 148.761L685.067 157.459L676.932 156.436C672.398 155.924 660.129 155.413 649.46 155.541C619.721 155.796 595.05 160.913 580.247 169.995C557.842 183.809 544.24 212.589 549.974 234.206C557.442 261.963 590.649 272.068 605.718 251.346C610.919 244.183 611.853 238.939 608.252 235.485C606.652 233.95 604.918 232.799 604.385 232.799C603.718 232.799 600.117 235.357 596.25 238.555C587.982 245.335 583.181 245.974 575.979 241.241C567.177 235.485 563.843 222.31 569.445 214.892C575.446 206.833 600.117 199.286 600.117 205.426C600.117 209.519 605.452 215.915 610.653 217.961C614.92 219.496 617.454 219.624 624.122 218.601C648.393 214.892 655.728 201.589 645.459 179.46C643.059 174.216 643.059 173.96 645.326 172.809C646.526 172.041 651.594 170.89 656.528 170.123C666.53 168.46 686.267 170.25 688.935 173.065C689.735 173.832 691.468 177.414 692.802 180.995C696.269 190.205 702.271 201.589 708.538 210.415C715.473 220.392 730.809 238.811 736.01 243.544C738.278 245.59 739.745 247.765 739.344 248.404C738.944 248.916 735.877 249.428 732.543 249.428C718.14 249.428 708.005 259.789 714.14 268.103C716.007 270.789 715.873 270.789 706.938 271.556C691.735 272.708 681.466 278.336 681.466 285.499C681.466 292.79 670.264 292.662 663.463 285.243C659.596 281.15 659.862 272.196 663.863 268.359C666.397 265.8 668.131 265.417 675.465 265.673C685.067 265.8 686.134 264.905 684.667 257.486C683.6 251.73 676.532 248.149 666.53 248.149C656.928 248.149 650.927 252.114 645.993 261.579C642.926 267.591 642.526 269.766 643.192 275.778C644.393 287.545 651.594 297.011 663.596 302.511L669.864 305.453L657.328 308.139C639.858 311.977 612.653 316.709 597.05 318.628C579.713 320.675 505.299 319.395 478.093 316.581C449.021 313.639 403.812 305.965 391.143 301.999C363.538 293.046 322.196 263.626 306.727 241.753C287.389 214.508 283.789 188.798 294.057 150.296C302.459 118.19 319.662 100.411 351.402 90.8174C374.873 83.7822 406.746 90.1778 433.551 107.446C438.219 110.516 447.021 117.807 453.022 123.563C476.36 146.331 483.961 174.983 474.626 204.147C469.958 218.729 451.555 238.172 435.418 245.59C415.681 254.8 397.144 253.521 375.673 241.497C358.07 231.648 345.801 215.787 342.467 198.519C339.133 181.251 347.001 157.843 359.67 147.226C367.805 140.319 383.008 133.028 389.409 133.028C403.145 133.028 416.881 140.831 423.149 152.215C426.483 158.227 426.883 160.273 426.35 166.413C425.283 177.925 419.149 186.495 409.68 189.437C405.546 190.716 405.012 190.46 399.278 185.472C393.944 180.867 392.743 180.228 389.009 180.995C383.808 182.146 381.808 183.553 379.274 188.158C375.14 195.961 377.941 202.228 387.676 206.833C395.011 210.159 395.011 210.159 402.079 207.984C406.079 206.833 413.681 202.868 419.015 199.158C427.283 193.402 429.417 191.228 433.418 183.681C437.686 175.623 438.086 173.96 438.086 163.855C438.086 154.134 437.686 152.087 434.485 146.843C429.951 139.552 420.482 131.493 410.747 126.888C404.612 123.946 401.678 123.435 392.61 123.435C382.608 123.435 381.008 123.819 370.206 128.935C349.135 139.04 338.199 152.471 332.865 174.855C328.731 192.251 330.465 205.682 339 221.671C349.002 240.858 374.607 257.87 398.478 261.196C411.147 262.986 427.684 261.324 438.886 256.975C453.822 251.474 474.493 234.59 484.628 219.88C493.296 207.345 496.497 196.344 497.164 177.03C498.364 142.622 488.762 119.086 464.224 95.8059C452.755 84.9334 441.153 78.0262 423.416 71.2469C402.345 63.1884 396.211 62.0372 374.073 62.0372C351.002 62.0372 342.2 63.9559 323.397 73.2935C298.858 85.4451 277.788 114.481 267.786 149.913C263.785 163.983 263.385 198.007 266.985 210.798C270.72 223.334 276.987 236.892 284.856 248.916C290.723 257.87 291.39 259.405 288.323 257.102C280.188 250.963 258.45 237.66 244.848 230.369C225.644 220.136 210.441 214.124 193.371 210.031C181.102 207.089 176.701 206.577 157.364 206.577C131.492 206.577 122.824 208.496 100.02 218.857C53.2104 240.346 17.7368 275.266 4.40086 313.384C0.933518 323.361 0.933518 360.455 4.40086 375.804C15.4697 424.411 47.876 460.098 88.8174 468.924C117.623 475.064 166.833 462.273 192.171 442.191C212.842 425.69 226.578 402.922 230.712 378.363C233.112 364.548 231.779 341.908 228.178 331.035C222.577 314.279 202.039 290.871 183.769 280.51C172.567 273.987 157.097 270.789 140.828 271.429C125.358 272.196 118.156 274.243 105.087 281.917C89.4842 290.999 77.7485 303.534 71.8807 317.349C67.7466 327.07 66.8131 351.373 70.0137 363.269C75.6148 384.119 87.8838 401.003 101.753 406.887C111.355 411.108 130.559 411.108 141.361 407.015C157.231 400.875 168.033 390.131 170.833 377.595C172.7 368.769 170.833 354.443 166.833 346.769C161.232 336.408 141.894 323.617 131.626 323.617C125.758 323.617 116.689 327.71 114.689 331.163C110.955 338.071 114.689 348.176 121.89 350.478C127.225 352.141 132.026 350.35 136.96 344.85C139.627 342.036 140.427 341.78 143.628 342.931C154.564 346.896 160.298 355.211 160.431 367.618C160.565 376.572 158.431 381.433 150.829 388.724C144.562 394.735 136.16 397.166 122.024 397.166C112.689 397.166 110.422 396.654 104.154 393.328C86.6836 384.119 76.2816 362.757 77.6152 338.838C78.282 325.024 83.8831 313.511 94.8185 303.151C123.758 275.65 162.832 274.371 188.704 299.825C198.305 309.418 205.774 321.186 209.774 333.21C213.908 345.873 213.775 364.42 209.641 376.316C201.506 398.829 177.901 422.236 151.363 433.748C140.294 438.481 119.49 443.726 106.154 445.005C83.0829 447.051 70.5471 442.319 51.7434 424.411C37.3406 410.596 31.0727 399.084 26.5385 378.619C22.1377 358.792 22.1377 331.675 26.4052 318.5C35.2069 291.767 54.0106 268.359 79.3488 252.498C98.0192 240.858 113.222 235.23 138.027 230.753C155.897 227.683 183.236 228.706 199.372 233.311C225.911 240.858 254.183 257.358 298.058 291.255C333.398 318.372 346.468 326.303 370.072 335.129C381.008 339.222 381.675 340.117 372.473 338.71C351.535 335.384 322.063 342.42 297.125 356.49C271.786 370.944 238.98 405.224 224.977 431.83C213.108 454.342 215.509 496.169 230.845 534.159C246.048 571.765 284.989 607.069 321.396 616.023C333.799 619.092 358.737 618.837 372.206 615.383C403.679 607.58 437.419 580.207 450.755 552.067C460.623 531.217 463.291 505.507 457.556 484.785C453.955 471.227 443.42 450.505 435.818 441.679C419.815 423.132 391.01 409.701 364.738 408.422C349.002 407.654 339 409.573 324.463 416.352C313.128 421.725 305.66 428.376 296.991 440.911C287.656 454.342 284.989 462.273 284.322 478.645C283.922 489.902 284.189 493.867 286.456 501.03C291.924 518.298 305.126 534.415 318.996 541.194C335.932 549.381 360.204 552.834 372.739 548.869C385.809 544.52 395.811 533.775 401.412 518.042C404.879 508.321 404.346 503.077 399.278 493.483C395.011 485.425 385.142 475.064 378.474 471.866C371.806 468.54 358.337 465.598 349.935 465.598C338.333 465.598 327.664 475.448 329.931 484.018C331.531 490.03 337.666 495.018 343.667 495.018C350.335 495.018 353.002 493.099 355.269 486.704C356.87 482.355 357.803 481.587 361.537 481.204C369.005 480.436 374.74 482.227 380.074 486.832C402.345 506.146 387.276 539.787 356.203 539.787C346.868 539.787 334.199 537.101 326.731 533.392C316.195 528.275 302.592 511.775 297.792 498.472C294.458 489.134 294.858 472.506 298.592 462.401C304.593 446.284 318.462 430.806 332.998 424.411C343.534 419.678 359.404 418.143 371.939 420.829C384.342 423.388 403.145 432.597 411.547 440.272C426.483 453.831 436.352 475.576 436.619 495.658C436.752 509.728 434.752 518.17 428.084 531.473C414.081 559.486 393.41 574.579 357.537 583.405C320.596 592.487 282.989 577.265 259.117 543.625C241.914 519.321 233.512 481.587 239.38 455.11C243.381 436.818 261.651 410.213 280.588 395.119C296.991 382.072 316.729 373.758 344.067 368.386C364.338 364.292 387.276 365.316 418.082 371.583C452.355 378.491 464.891 379.898 495.43 380.793C520.368 381.433 547.44 380.281 566.111 377.851L571.445 377.084L567.444 379.514C562.643 382.584 555.575 390.003 552.775 395.247C546.507 406.759 547.707 425.178 555.709 441.295C564.777 459.587 585.581 474.296 608.786 479.029C626.656 482.611 653.061 484.146 670.264 482.483C678.933 481.715 686.134 481.204 686.401 481.332C686.534 481.587 686.001 485.681 685.201 490.541C683.2 503.332 684.667 538.892 687.868 553.218C695.469 587.37 721.874 610.906 753.214 611.546C764.283 611.801 769.884 610.778 777.085 606.813C791.488 598.882 799.623 581.998 794.822 569.974C793.222 565.625 784.553 556.672 780.019 554.369C775.485 552.195 769.217 552.067 767.083 554.113C764.283 556.799 765.35 560.381 770.817 566.265C778.019 574.195 778.152 579.824 771.351 587.115C763.616 595.301 752.814 596.708 744.679 590.696C740.145 587.115 733.477 573.684 733.477 567.8C733.477 563.451 733.877 563.067 739.611 560.893C743.479 559.486 746.679 557.183 748.28 554.625C754.147 545.927 748.413 524.566 738.411 517.531C733.477 514.077 722.541 514.205 711.606 517.914C707.338 519.321 703.337 520.345 702.804 519.961C700.137 518.298 698.403 507.042 699.203 494.634C700.27 477.622 700.67 476.471 706.671 474.808C723.341 469.947 748.146 455.366 770.951 436.69L782.553 427.225L783.086 436.818C783.62 447.691 786.42 452.679 793.222 454.598C796.422 455.493 798.156 455.238 800.69 453.575C802.557 452.424 804.424 451.528 804.824 451.528C805.224 451.528 805.491 454.342 805.491 457.668C805.491 471.482 812.692 484.785 820.16 484.785C829.895 484.785 824.694 501.414 813.892 504.484C810.025 505.635 802.157 502.309 800.156 498.728C799.089 496.937 798.823 493.227 799.223 489.134C799.89 483.122 799.623 482.227 797.222 481.459C795.755 481.076 792.555 481.076 790.154 481.459C786.554 482.099 785.087 483.378 782.953 487.727C769.884 513.693 804.824 532.112 829.362 512.158C835.363 507.426 840.164 497.321 840.164 489.518C840.164 486.192 840.698 483.506 841.231 483.506C841.764 483.506 844.698 485.808 847.499 488.623L852.7 493.739L859.501 487.343C863.235 483.89 866.703 480.948 867.236 480.948C867.77 480.948 868.17 483.762 868.17 487.088C868.17 496.041 871.637 504.356 877.771 510.368C884.706 517.403 892.308 520.6 901.91 520.6C911.378 520.6 916.712 518.426 922.714 512.414C926.714 508.449 927.381 506.786 927.915 500.39C928.848 487.599 922.98 479.797 913.378 481.204C910.445 481.587 910.178 482.227 910.178 489.518C910.178 496.041 909.644 497.96 907.111 500.518C903.11 504.484 898.042 505.507 892.574 503.332C886.84 501.03 883.906 496.297 884.439 490.285C884.84 485.808 885.24 485.425 889.24 485.041C896.442 484.401 901.243 475.32 903.51 458.307L904.443 451.528L908.177 453.447C913.512 456.133 915.379 455.877 919.913 452.168C924.581 448.458 927.515 439.632 926.448 432.341C926.048 429.527 926.048 427.225 926.448 427.225C926.848 427.225 930.582 430.167 934.716 433.876C953.92 450.761 979.125 466.494 997.128 472.761C1004.86 475.448 1007.4 476.983 1008.46 479.541C1010.6 484.785 1011.4 506.53 1009.66 512.286C1007.13 520.984 1007 521.112 997.928 518.17C984.592 513.821 979.791 513.565 973.257 516.635C970.056 518.042 966.055 521.368 964.322 523.926C961.121 528.403 957.654 540.81 957.52 547.718C957.52 552.578 964.588 559.869 970.99 561.66C976.057 563.195 976.191 563.195 975.391 568.439C971.656 592.231 952.719 602.08 937.917 587.754C933.116 583.277 932.182 581.486 932.182 577.265C932.182 573.172 933.249 570.998 938.183 565.497C943.784 559.23 944.184 558.462 942.451 555.904C940.184 552.706 934.583 551.811 929.382 553.985C923.78 556.16 915.112 566.009 913.378 572.021C910.311 583.021 916.712 597.092 928.448 604.766C936.45 610.011 942.718 611.674 954.053 611.546C981.925 611.29 1006.86 593.51 1017.27 566.649C1023.93 548.997 1027.53 508.321 1024.33 486.448L1023.4 479.669L1030.73 480.692C1034.87 481.204 1048.07 481.459 1060.21 481.459C1077.28 481.332 1085.41 480.692 1096.21 478.518C1131.02 471.482 1152.09 453.319 1158.36 424.667C1162.63 405.48 1157.43 391.41 1142.22 380.153C1138.36 377.211 1138.36 377.211 1141.56 377.851C1153.16 380.026 1186.37 381.433 1211.44 380.793C1242.24 379.898 1254.65 378.491 1288.92 371.583C1329.19 363.397 1355.6 364.165 1386.94 374.397C1418.28 384.502 1444.02 406.12 1459.75 435.283C1469.49 453.319 1471.62 469.436 1467.62 493.227C1460.95 533.136 1439.61 563.067 1407.61 577.649C1382.94 588.905 1360.4 588.649 1328.53 576.882C1306.66 568.823 1289.99 553.602 1278.92 531.473C1272.25 518.17 1270.25 509.728 1270.38 495.658C1270.65 475.576 1280.52 453.831 1295.45 440.272C1303.85 432.597 1322.66 423.388 1335.06 420.829C1347.6 418.143 1363.47 419.678 1374 424.411C1388.54 430.806 1402.41 446.284 1408.41 462.401C1412.14 472.506 1412.54 489.134 1409.21 498.472C1404.41 511.775 1390.81 528.275 1380.27 533.392C1372.8 537.101 1360.13 539.787 1350.8 539.787C1319.72 539.787 1304.65 506.146 1326.93 486.832C1332.26 482.227 1337.99 480.436 1345.46 481.204C1349.2 481.587 1350.13 482.355 1351.73 486.704C1354 493.099 1356.67 495.018 1363.33 495.018C1369.33 495.018 1375.47 490.03 1377.07 484.018C1379.34 475.448 1368.67 465.598 1357.07 465.598C1348.66 465.598 1335.19 468.54 1328.53 471.866C1321.86 475.064 1311.99 485.425 1307.72 493.483C1302.65 503.077 1302.12 508.321 1305.59 518.042C1311.19 533.775 1321.19 544.52 1334.26 548.869C1346.8 552.834 1371.07 549.381 1388 541.194C1401.87 534.415 1415.08 518.298 1420.54 501.03C1424.14 489.646 1423.48 468.796 1419.21 457.54C1415.74 448.458 1405.61 433.493 1397.87 426.33C1391.07 419.934 1376.4 412.771 1364.27 409.829C1334.93 402.794 1292.39 417.376 1271.18 441.679C1263.58 450.505 1253.04 471.227 1249.44 484.785C1243.84 505.763 1246.38 531.217 1256.25 552.067C1269.58 580.207 1303.32 607.58 1334.79 615.383C1348.26 618.837 1373.2 619.092 1385.6 616.023C1422.01 607.069 1460.95 571.765 1476.16 534.159C1491.62 495.658 1493.89 454.214 1481.62 431.19C1467.62 404.84 1434.95 370.816 1410.01 356.618C1384.94 342.42 1355.46 335.384 1334.66 338.71C1330.39 339.35 1327.33 339.35 1327.73 338.71C1328.13 338.198 1329.19 337.687 1329.99 337.687C1332.79 337.687 1357.07 326.686 1367.87 320.547C1373.6 317.349 1391.47 304.686 1407.61 292.278C1453.35 257.102 1480.96 240.858 1507.63 233.311C1523.76 228.706 1551.1 227.683 1568.97 230.753C1593.78 235.23 1608.98 240.858 1627.65 252.498C1652.99 268.359 1671.79 291.767 1680.6 318.5C1684.86 331.675 1684.86 358.792 1680.46 378.619C1675.93 399.084 1669.66 410.596 1655.26 424.411C1636.45 442.319 1623.92 447.051 1600.85 445.005C1569.77 442.063 1543.1 430.679 1521.76 411.364C1492.16 384.375 1485.76 347.792 1505.23 316.07C1522.43 288.057 1552.57 275.266 1580.44 284.348C1599.91 290.743 1616.32 303.79 1624.18 319.14C1637.12 344.21 1626.45 380.793 1602.85 393.328C1596.31 396.782 1594.58 397.166 1583.64 397.166C1574.04 397.038 1570.17 396.398 1564.57 393.968C1552.3 388.851 1544.57 376.188 1546.44 364.292C1548.17 353.548 1553.9 346.385 1563.51 342.803C1566.57 341.78 1567.51 342.036 1570.04 344.85C1578.17 353.932 1587.91 353.164 1592.58 343.187C1595.11 337.687 1595.11 337.431 1592.71 332.954C1589.91 327.454 1582.98 323.617 1575.91 323.617C1563.51 323.617 1543.9 337.687 1538.83 350.222C1534.57 360.967 1534.57 377.084 1538.7 385.27C1546.57 400.619 1569.11 411.748 1589.64 410.341C1611.25 408.806 1625.25 396.27 1635.25 369.665C1637.92 362.374 1638.32 359.048 1638.32 342.803C1638.19 326.558 1637.92 323.361 1635.25 317.349C1629.12 303.406 1617.38 290.999 1601.91 281.917C1588.84 274.243 1581.64 272.196 1566.17 271.429C1549.9 270.789 1534.43 273.987 1523.23 280.51C1512.56 286.522 1495.89 301.999 1488.29 313C1478.02 327.71 1475.62 336.791 1475.62 360.071C1475.62 382.072 1477.36 389.875 1485.49 406.12C1500.43 436.051 1528.03 456.389 1566.44 465.726C1597.51 473.273 1617.38 471.994 1640.19 460.994C1670.86 446.284 1693.53 415.329 1702.6 375.804C1706.07 360.455 1706.07 323.361 1702.6 313.384C1689.26 275.266 1653.79 240.346 1606.98 218.857C1584.18 208.496 1575.51 206.577 1549.64 206.577C1530.3 206.577 1525.9 207.089 1513.63 210.031C1496.56 214.124 1481.36 220.136 1462.15 230.369C1448.42 237.788 1426.95 250.835 1418.41 257.358C1414.68 260.044 1414.68 259.789 1419.88 252.626C1447.88 212.973 1450.95 167.82 1428.95 123.179C1413.34 91.4569 1393.87 74.3168 1362.93 64.9792C1354.13 62.421 1350.4 62.0372 1332.26 62.1651C1313.72 62.1651 1310.39 62.5489 1299.59 65.7467C1282.78 70.6073 1259.85 81.6077 1249.44 89.922C1233.31 102.841 1219.7 122.412 1213.3 141.982C1210.64 150.296 1210.24 154.262 1210.24 171.402C1210.24 198.135 1213.84 209.519 1227.84 226.659C1241.98 243.928 1262.11 256.591 1281.58 260.428C1303.05 264.521 1321.99 260.94 1340.66 249.044C1355.6 239.451 1363.33 231.264 1370 217.706C1374.8 207.984 1375.47 205.17 1376 195.449C1376.94 176.518 1370.4 156.18 1359.6 144.668C1353.6 138.273 1339.33 129.063 1330.26 125.865C1325.86 124.202 1320.12 123.435 1313.59 123.435C1305.19 123.435 1302.39 124.074 1295.85 127.272C1286.92 131.493 1275.05 141.854 1271.58 148.378C1269.85 151.447 1269.18 155.796 1269.18 163.087C1269.05 180.611 1275.58 191.612 1291.99 201.717C1303.05 208.496 1309.06 210.159 1315.99 208.368C1327.73 205.298 1332.39 196.984 1327.73 188.158C1325.19 183.553 1323.19 182.146 1317.99 180.995C1314.26 180.228 1313.06 180.867 1307.59 185.6L1301.59 190.972L1296.12 188.67C1273.58 178.821 1275.85 148.633 1299.99 137.249C1316.12 129.702 1332.66 133.668 1349.06 149.017C1357.6 157.076 1361.73 164.878 1364.4 178.309C1368.53 199.158 1359.6 221.415 1341.73 234.846C1310.52 258.382 1278.78 256.975 1251.44 230.881C1237.58 217.578 1231.57 206.577 1229.57 190.205C1227.04 169.739 1231.04 153.366 1243.04 136.354C1262.11 108.981 1300.52 88.387 1333.33 87.8754C1346.66 87.7475 1355.46 89.794 1370.4 96.7013C1391.74 106.423 1403.07 119.342 1410.94 142.749C1416.14 158.61 1419.48 180.739 1418.54 194.554C1416.28 227.939 1394.41 257.23 1351.6 284.348C1326.93 299.953 1315.86 303.79 1276.92 310.058C1234.77 316.837 1213.97 318.628 1164.89 319.395C1115.55 320.163 1107.55 319.523 1065.67 311.337C1035.54 305.453 1035.67 305.453 1043.27 302.639C1050.87 299.825 1061.67 288.952 1063.94 281.789C1067.54 270.405 1064.61 259.789 1055.81 252.37C1049.27 246.87 1043 245.846 1033.94 248.788C1030.07 250.067 1026.33 251.73 1025.67 252.498C1023.93 254.8 1022.87 260.044 1023.8 263.242C1024.47 265.928 1025 266.056 1032.07 265.289C1038.87 264.649 1040.07 264.777 1043.4 267.463C1048.6 271.812 1049.54 279.487 1045.4 284.476C1038.87 292.534 1026.87 293.174 1026.87 285.499C1026.87 278.464 1016.87 272.836 1001.93 271.556C993.928 270.789 993.394 270.533 994.194 268.103C996.328 261.451 996.328 259.533 994.194 256.335C991.127 251.858 984.459 249.428 974.724 249.428H966.589L974.99 240.73C993.794 221.287 1009 198.519 1016.2 179.46L1019.13 171.53L1026.6 169.995C1035.4 168.332 1058.34 168.971 1062.34 171.146L1065.14 172.553L1062.07 181.251C1055.94 198.263 1059.01 209.008 1071.28 214.764C1079.94 218.857 1091.41 220.392 1096.75 218.217C1101.95 216.043 1106.75 211.182 1108.08 206.449C1109.02 202.996 1109.55 202.74 1115.15 202.868C1122.49 203.124 1133.29 208.24 1138.09 213.613C1144.36 220.903 1142.36 232.543 1133.55 239.706C1125.55 246.102 1120.62 245.59 1111.02 237.276C1105.15 232.16 1101.42 232.032 1098.75 236.892C1095.15 243.416 1107.95 259.789 1118.22 261.707C1137.02 265.033 1156.49 249.939 1159.69 229.474C1161.03 221.031 1157.96 206.322 1152.76 195.833C1142.22 174.983 1122.49 162.192 1092.88 157.203C1075.41 154.262 1047.8 153.366 1031 155.157C1021.8 156.18 1021.27 156.052 1022.2 153.878C1022.73 152.599 1023.53 141.47 1023.8 129.191C1025 86.8521 1017.93 62.8047 998.728 44.3854C985.926 32.1059 973.79 26.7336 956.72 25.8382C942.718 25.1987 936.45 26.7336 926.981 33.2571C920.58 37.734 914.045 48.0949 912.978 55.5137C910.978 68.0491 921.38 82.5031 933.516 84.038C944.051 85.4451 945.651 79.5611 937.516 70.7352C930.182 62.6768 930.048 56.7929 937.25 49.8856C945.385 42.083 954.853 40.8039 963.121 46.3041C968.323 49.7577 975.124 63.7001 974.59 69.8398C974.19 74.0609 973.657 74.8284 970.056 75.7238C967.656 76.2354 963.922 78.9216 961.521 81.4798C957.387 85.9567 957.254 86.4683 957.92 94.2709C959.121 109.748 968.989 122.795 979.391 122.795C981.658 122.795 987.793 121.644 992.861 120.237C1006.2 116.4 1005.93 116.4 1007.93 122.156C1009.8 127.4 1009.53 154.262 1007.66 158.738C1007.13 159.89 1001.8 162.576 995.661 164.75C977.391 171.53 955.12 185.472 935.249 202.612C930.849 206.577 926.848 209.775 926.448 209.775C926.048 209.775 926.048 207.601 926.448 204.915C927.381 198.391 924.714 189.693 920.713 185.856C918.046 183.297 916.312 182.786 912.445 183.17C909.778 183.553 906.444 184.193 905.244 184.704C903.11 185.6 902.843 184.96 902.843 179.46C902.843 165.646 895.242 151.32 888.574 152.599C886.173 152.982 884.973 152.471 883.906 150.168C882.039 146.203 883.639 141.087 888.174 136.738C893.375 131.749 901.376 131.493 906.31 136.354C909.378 139.168 909.778 140.319 909.244 147.482C908.844 155.413 908.844 155.413 912.712 155.796C919.38 156.564 922.714 155.029 925.514 149.657C928.581 143.773 928.981 134.435 926.314 129.447C918.446 114.993 896.575 112.051 880.972 123.435C873.504 128.807 869.37 136.738 868.436 146.587L867.77 155.029L860.035 147.61L852.166 140.191L847.099 144.924C841.231 150.424 840.164 150.68 840.164 146.715C840.164 140.831 835.897 131.749 830.696 126.76C824.161 120.493 817.36 117.423 808.691 116.655C792.555 115.376 780.152 124.97 780.152 138.784C780.152 150.04 786.287 157.076 794.955 155.796C797.889 155.413 798.156 154.901 798.156 147.354C798.156 140.063 798.556 138.912 801.89 136.098C807.624 131.493 815.226 131.877 820.294 137.121C823.761 140.575 824.294 141.982 823.894 146.971C823.628 151.32 822.961 152.727 821.627 152.471C814.026 150.936 808.158 159.378 805.624 175.239C803.89 185.728 803.49 186.623 801.223 184.449C800.29 183.553 797.622 182.914 795.222 182.914C787.22 182.914 781.486 191.612 781.486 203.635C781.486 206.322 781.219 208.496 780.819 208.496C780.419 208.496 774.551 204.019 767.883 198.519C745.079 180.355 734.677 173.96 714.14 165.646L700.804 160.273L699.203 154.006C695.736 139.807 698.67 115.121 703.604 116.911C713.339 120.493 725.075 123.051 729.476 122.412C740.811 121.004 748.546 110.644 750.28 94.6547C751.08 86.8521 750.947 85.9567 747.613 82.2473C745.612 80.0728 741.478 77.2587 738.278 76.1075L732.543 74.0609L733.743 66.77C734.944 59.2232 739.211 51.0368 743.879 46.9437C751.08 40.676 762.816 41.9551 771.084 49.8856C778.285 56.7929 778.152 62.6768 770.817 70.7352C763.216 79.0495 764.016 84.4218 772.951 84.4218C777.085 84.4218 785.754 79.689 789.221 75.5959C802.29 60.2465 794.689 38.3736 772.951 28.6523C767.483 26.222 764.016 25.5824 755.481 25.7103C749.613 25.8382 742.545 26.3499 739.745 26.9894ZM991.26 91.0732C992.194 93.7593 990.727 95.9338 988.193 95.9338C986.859 95.9338 985.526 95.1663 985.126 94.2709C984.192 91.7127 985.659 89.5382 988.193 89.5382C989.527 89.5382 990.86 90.3057 991.26 91.0732ZM1086.61 179.844C1086.88 181.379 1086.08 182.914 1085.01 183.297C1082.48 184.193 1079.68 180.995 1080.74 178.309C1081.81 175.495 1086.08 176.646 1086.61 179.844ZM994.194 190.46C987.926 201.717 972.323 222.822 961.788 234.078L956.32 239.834L946.051 230.113L935.783 220.264L941.251 215.659C949.385 208.496 958.587 201.845 969.656 194.682C980.992 187.391 999.129 177.669 999.929 178.437C1000.2 178.693 997.662 184.065 994.194 190.46ZM718.54 183.425C734.81 191.228 769.484 215.147 769.484 218.473C769.484 218.985 764.949 223.718 759.482 228.962L749.48 238.555L746.146 234.718C740.011 227.811 727.475 211.822 724.008 206.577C719.474 199.926 708.138 180.611 708.138 179.716C708.138 178.565 709.339 178.948 718.54 183.425ZM623.722 333.338C623.322 333.722 622.122 333.849 621.188 333.466C620.121 333.082 620.521 332.698 621.988 332.698C623.455 332.57 624.255 332.954 623.722 333.338ZM1086.48 333.338C1086.08 333.722 1084.88 333.849 1083.95 333.466C1082.88 333.082 1083.28 332.698 1084.75 332.698C1086.21 332.57 1087.01 332.954 1086.48 333.338ZM616.52 334.745C615.587 335.001 613.72 335.001 612.52 334.745C611.186 334.361 611.986 334.105 614.12 334.105C616.387 334.105 617.321 334.361 616.52 334.745ZM1095.28 334.745C1094.35 335.001 1092.48 335.001 1091.28 334.745C1089.95 334.361 1090.75 334.105 1092.88 334.105C1095.15 334.105 1096.08 334.361 1095.28 334.745ZM607.185 336.024C606.252 336.28 604.385 336.28 603.185 336.024C601.851 335.64 602.651 335.384 604.785 335.384C607.052 335.384 607.985 335.64 607.185 336.024ZM1104.62 336.024C1103.68 336.28 1101.82 336.28 1100.62 336.024C1099.28 335.64 1100.08 335.384 1102.22 335.384C1104.48 335.384 1105.42 335.64 1104.62 336.024ZM547.307 337.815C579.313 338.071 582.914 338.198 572.112 339.222C558.642 340.501 508.366 339.478 496.097 337.687C489.562 336.664 489.962 336.664 499.298 337.175C505.032 337.431 526.636 337.815 547.307 337.815ZM595.85 337.303C594.516 337.559 592.382 337.559 591.182 337.303C589.849 336.919 590.915 336.664 593.449 336.664C595.983 336.664 597.05 336.919 595.85 337.303ZM1115.95 337.303C1114.62 337.559 1112.48 337.559 1111.28 337.303C1109.95 336.919 1111.02 336.664 1113.55 336.664C1116.08 336.664 1117.15 336.919 1115.95 337.303ZM1210.24 337.687C1194.77 339.733 1159.29 340.629 1140.89 339.478C1122.62 338.326 1123.02 338.326 1163.56 337.687C1186.37 337.303 1207.97 336.919 1211.57 336.919C1218.24 336.791 1218.24 336.791 1210.24 337.687ZM645.059 347.408C644.659 347.792 643.459 347.92 642.526 347.536C641.459 347.152 641.859 346.769 643.326 346.769C644.793 346.641 645.593 347.024 645.059 347.408ZM1065.14 347.408C1064.74 347.792 1063.54 347.92 1062.61 347.536C1061.54 347.152 1061.94 346.769 1063.41 346.769C1064.87 346.641 1065.67 347.024 1065.14 347.408ZM637.858 349.199C632.257 351.373 600.917 356.746 582.114 358.664C571.845 359.816 557.176 361.606 549.441 362.63C533.304 364.804 503.298 365.06 486.762 363.269C474.759 361.99 447.687 356.746 448.621 355.978C448.888 355.722 455.956 356.362 464.224 357.385C487.295 360.455 519.835 361.734 542.106 360.583C554.108 359.943 576.513 357.257 598.117 353.804C617.987 350.734 635.591 348.176 637.458 348.176C640.792 348.048 640.792 348.048 637.858 349.199ZM1107.55 353.804C1129.69 357.129 1154.49 360.071 1165.56 360.583C1187.57 361.734 1220.37 360.455 1242.78 357.513C1251.04 356.362 1258.11 355.722 1258.38 355.978C1259.31 356.746 1232.24 361.99 1220.24 363.269C1203.7 365.06 1173.7 364.804 1157.56 362.63C1149.82 361.606 1135.16 359.816 1124.89 358.664C1106.08 356.746 1074.74 351.373 1069.14 349.199C1064.34 347.28 1067.28 347.664 1107.55 353.804ZM690.001 361.223C693.736 363.013 699.07 364.676 701.87 365.06C717.34 367.362 716.407 366.979 714.14 370.048C707.738 378.746 717.34 387.956 732.943 388.084H741.211L731.876 398.189C712.673 419.167 701.737 435.155 693.469 454.982C690.935 460.738 688.134 465.854 687.201 466.11C686.267 466.494 680.4 467.389 674.398 468.157C663.33 469.436 654.528 468.668 646.526 465.726L642.792 464.447L645.326 458.947C649.327 449.737 651.061 440.4 649.46 434.9C646.793 425.306 633.457 418.271 617.721 418.271C611.319 418.271 609.986 418.783 605.985 422.62C603.451 425.05 601.051 428.76 600.651 430.934C599.851 434.388 599.184 434.9 595.316 434.9C587.715 434.9 576.779 430.167 571.578 424.667C567.578 420.318 566.777 418.655 566.777 413.666C566.777 404.712 572.512 396.526 580.78 393.968C586.115 392.305 589.715 393.584 596.783 399.596C599.717 402.154 603.185 404.201 604.385 404.201C607.985 404.201 611.186 398.573 610.119 394.224C608.919 388.851 600.517 380.026 594.249 377.211C589.315 375.165 589.182 374.909 592.116 374.27C593.983 373.886 605.318 371.839 617.454 369.537C629.59 367.362 640.258 365.188 641.192 364.932C642.125 364.548 642.792 365.316 642.792 366.979C642.792 374.014 650.127 384.502 657.729 388.34C665.997 392.433 682.533 388.34 684.4 381.688C684.934 379.642 685.067 376.444 684.667 374.525C684 371.072 683.734 371.072 676.265 371.711C669.464 372.479 668.264 372.223 665.063 369.537C663.063 367.874 661.329 365.06 661.196 363.269C660.796 360.455 661.729 359.816 670.798 356.746C680.4 353.42 680.8 353.42 682 355.722C682.667 357.129 686.267 359.56 690.001 361.223ZM1038.34 357.385C1046.47 360.071 1047.54 360.711 1047.14 363.397C1047 365.06 1045.27 367.874 1043.27 369.537C1040.07 372.223 1038.87 372.479 1032.07 371.711C1025 371.072 1024.47 371.2 1023.67 373.886C1021.67 381.816 1027.27 387.572 1039.27 389.363C1050.07 391.026 1063.14 380.921 1065.14 369.409C1065.67 365.444 1066.34 364.548 1068.08 365.188C1069.28 365.699 1079.81 367.746 1091.55 369.921C1103.28 372.095 1113.68 374.014 1114.75 374.397C1115.95 374.653 1114.22 376.316 1110.62 378.491C1106.08 381.305 1103.55 384.119 1100.75 389.491C1097.41 396.27 1097.15 397.166 1099.01 400.236C1101.95 405.224 1104.62 404.968 1112.08 398.573C1119.82 392.049 1124.89 391.026 1131.15 394.991C1137.69 399.084 1140.76 404.073 1141.29 411.876C1141.82 418.143 1141.42 419.55 1138.36 423.004C1133.82 428.248 1122.49 433.493 1115.02 433.876C1109.42 434.26 1109.02 434.004 1107.95 430.295C1107.42 427.992 1104.62 424.411 1101.95 422.108C1097.28 418.143 1096.75 418.015 1087.68 418.527C1076.61 419.294 1069.14 422.364 1063.14 429.144C1059.41 433.109 1058.87 434.644 1058.87 441.039C1058.87 445.772 1060.07 451.017 1062.21 455.877C1063.94 460.098 1065.27 463.68 1065.14 463.936C1064.87 464.063 1060.87 465.215 1056.07 466.366C1049.81 467.901 1044.74 468.285 1036.6 467.645C1020.33 466.494 1020.07 466.366 1014.33 452.935C1011.53 446.54 1006.06 436.307 1001.93 430.167C994.461 418.655 978.324 398.829 970.99 392.177C968.723 390.003 966.856 388.084 966.856 387.572C966.856 387.189 968.989 387.061 971.523 387.317C988.727 389.235 1001.53 378.746 994.194 368.897C992.327 366.211 992.461 366.211 1001.53 365.572C1011.26 364.804 1024.6 359.816 1026.07 356.234C1027 353.804 1027.4 353.804 1038.34 357.385ZM977.124 420.701C986.459 433.109 1000.6 456.133 999.929 458.052C999.529 459.331 969.789 443.47 959.521 436.435C955.92 433.876 948.452 428.376 943.118 424.283L933.249 416.608L944.451 405.864L955.52 395.119L962.188 402.41C965.922 406.375 972.59 414.562 977.124 420.701ZM765.083 423.004C757.615 429.527 742.545 440.4 733.477 445.772C723.475 451.912 709.072 459.203 708.405 458.691C707.472 457.796 718.14 439.377 726.409 427.609C730.409 421.853 737.611 412.771 742.412 407.271L751.08 397.549L761.482 407.399L771.884 417.248L765.083 423.004Z" fill="currentColor"/>
<path d="M589.982 36.9665C587.048 38.2456 583.314 40.9317 581.714 42.8504L578.78 46.4319L573.579 42.8504C563.977 36.5827 559.576 41.0596 566.777 49.8855L571.045 55.002L566.777 58.3277C561.176 62.8046 558.776 67.7932 558.776 74.5725C558.776 82.8868 563.577 86.0845 582.914 90.8173C589.048 92.3522 594.65 94.0151 595.183 94.5267C595.85 95.1663 591.316 95.8058 585.181 96.1896C570.645 96.957 563.577 99.899 563.043 105.783C562.777 108.597 563.443 110.644 565.444 112.562C568.244 115.248 568.244 115.376 565.844 117.935C562.643 121.26 562.777 134.435 565.977 140.447C571.845 151.447 594.65 156.564 596.917 147.482C598.25 142.749 596.383 140.703 588.382 137.889C579.847 134.819 577.846 131.877 579.98 125.226C582.914 116.016 594.516 111.667 610.386 113.713C617.187 114.609 623.188 116.783 634.391 122.284C649.06 129.447 649.594 129.575 652.127 127.272C656.128 123.818 655.461 120.877 648.127 106.806C635.458 82.7588 635.991 63.5721 649.46 56.9207C657.862 52.8275 662.529 55.1299 665.597 64.9791C667.464 71.2468 671.731 73.9329 676.132 71.6305C681.467 68.8165 680.666 55.3857 674.532 47.9669C668.531 40.6759 653.861 37.4781 645.326 41.5713C641.725 43.49 641.192 43.3621 637.458 40.8038C634.124 38.3735 633.057 38.1177 630.123 39.3968C625.456 41.4434 621.588 50.1414 620.388 61.6534L619.321 70.991L617.054 62.4209C610.119 36.3269 604.251 30.8267 589.982 36.9665ZM602.651 69.456C611.186 73.2934 620.788 82.8868 625.456 92.3522C631.723 105.143 630.79 106.039 617.987 99.7711C604.518 93.3755 594.383 81.7355 590.115 67.9211C589.182 65.107 589.449 64.9791 592.783 65.7466C594.783 66.2582 599.184 67.9211 602.651 69.456Z" fill="currentColor"/>
<path d="M1101.15 37.8618C1097.95 40.9317 1095.68 46.304 1090.08 64.5954L1087.68 72.2701L1086.75 61.6534C1085.81 49.6297 1082.74 41.955 1078.08 39.5247C1075.28 38.1177 1074.34 38.2456 1070.74 40.8038C1066.87 43.6179 1066.47 43.6179 1062.21 41.6992C1046.34 34.4082 1028.2 45.7924 1028.2 63.1883C1028.2 69.8398 1031.13 73.5492 1035.4 72.398C1037 72.0142 1038.6 71.6305 1039.14 71.6305C1039.54 71.6305 1041 68.6885 1042.2 65.2349C1043.4 61.6534 1045.27 57.944 1046.47 56.9207C1049.67 53.8508 1055.67 54.6183 1060.61 58.8394C1067.27 64.3396 1068.61 68.5606 1067.94 80.9681C1067.41 90.1777 1066.74 92.7359 1061.67 102.329C1058.47 108.213 1055.14 114.225 1054.07 115.632C1053.01 117.039 1052.21 119.469 1052.21 121.004C1052.21 123.946 1056.07 127.912 1059.01 127.912C1060.07 127.912 1067.68 124.586 1075.94 120.621C1089.95 113.713 1091.81 113.202 1101.68 112.69C1107.42 112.562 1113.68 112.69 1115.55 113.074C1120.49 114.225 1127.95 121.132 1128.89 125.481C1130.22 130.854 1127.29 134.435 1119.42 136.865C1114.48 138.528 1112.62 139.807 1111.55 142.494C1109.55 147.866 1111.95 150.168 1119.95 150.68C1127.82 151.064 1135.69 147.994 1140.09 142.494C1145.82 135.586 1147.02 121.132 1142.36 116.655C1140.62 114.865 1140.76 114.353 1143.56 111.027C1147.69 106.422 1147.69 105.911 1143.82 101.69C1140.49 97.8524 1129.29 94.7825 1118.22 94.5267C1111.55 94.3988 1111.55 94.3988 1126.35 89.794C1143.02 84.4217 1147.82 81.8634 1149.69 77.2586C1151.69 72.1422 1148.76 64.2116 1142.76 58.4556L1137.56 53.4671L1141.56 48.8622C1150.09 38.8851 1142.89 34.9199 1132.49 43.8737L1129.55 46.5598L1124.49 41.8271C1116.22 34.1524 1106.75 32.4896 1101.15 37.8618ZM1117.55 68.9444C1113.82 81.4797 1103.28 92.9918 1089.68 99.5153C1078.34 104.888 1077.41 104.888 1079.14 98.7478C1081.01 91.8406 1086.08 84.1659 1092.88 77.6424C1099.15 71.6305 1110.75 65.3628 1115.82 65.2349C1118.35 65.2349 1118.62 65.6187 1117.55 68.9444Z" fill="currentColor"/>
<path d="M1115.15 486.064C1107.68 489.006 1110.22 495.913 1120.35 499.495C1129.42 502.949 1131.55 506.914 1127.55 513.821C1122.89 522.007 1118.89 523.798 1105.82 523.67C1092.21 523.542 1085.15 521.368 1070.48 513.309C1060.47 507.937 1059.94 507.681 1056.74 509.728C1055.01 510.751 1053.54 512.926 1053.54 514.589C1053.54 516.124 1056.47 523.159 1060.21 530.194C1069.68 548.229 1071.94 562.172 1067.01 572.66C1064.21 578.544 1058.74 581.998 1052.47 581.998C1047.67 581.998 1046.47 580.719 1043.27 572.405C1040.87 566.265 1040.6 566.009 1035.54 566.009C1031 566.009 1030.33 566.393 1029.27 569.846C1026.73 578.544 1033.67 592.103 1042.34 595.557C1048.34 597.987 1060.21 597.859 1063.94 595.301C1066.74 593.51 1067.14 593.51 1070.34 595.94C1072.34 597.475 1075.01 598.627 1076.21 598.627C1078.74 598.627 1085.41 591.847 1085.68 589.289C1085.68 588.394 1086.48 582.893 1087.41 576.882L1089.01 566.009L1091.28 574.579C1094.48 586.859 1098.75 597.22 1101.68 600.034C1106.75 604.894 1119.69 602.208 1126.62 594.789L1130.35 590.952L1134.89 594.15C1143.96 600.545 1148.76 595.812 1141.69 587.37L1137.69 582.51L1142.89 577.777C1146.22 574.579 1148.49 570.998 1149.42 567.288C1152.22 556.416 1146.89 551.939 1124.22 546.055L1112.88 543.113L1122.22 542.09C1143.16 539.787 1151.96 532.24 1142.49 524.566C1140.76 523.287 1140.89 522.391 1143.02 518.426C1149.56 506.146 1142.36 490.285 1128.62 486.32C1122.35 484.529 1119.42 484.529 1115.15 486.064ZM1089.15 537.229C1101.55 544.008 1115.02 558.718 1118.22 568.823C1119.29 572.405 1118.35 572.533 1108.88 569.079C1099.01 565.497 1088.21 555.392 1082.88 544.648C1076.61 531.985 1077.54 530.833 1089.15 537.229Z" fill="currentColor"/>
<path d="M575.979 489.006C572.779 490.669 568.778 493.867 567.311 496.041C562.243 503.077 561.843 514.717 566.244 521.24C567.844 523.542 567.711 524.182 565.444 526.101C563.977 527.252 562.777 529.554 562.777 531.217C562.777 537.357 570.378 540.938 586.115 542.218L596.783 543.113L581.314 547.846C561.843 553.73 558.776 555.904 558.776 563.579C558.776 570.486 561.176 575.347 566.777 579.951L571.045 583.277L567.711 587.115C563.31 592.103 561.977 596.068 564.244 597.475C567.311 599.266 569.178 598.754 574.112 594.661L578.913 590.568L583.181 594.789C590.115 601.569 599.45 604.255 605.585 601.185C609.052 599.394 612.92 591.719 616.254 579.824C620.255 565.625 620.921 565.114 621.855 576.114C623.188 593.638 630.657 602.848 638.125 596.068C641.059 593.51 641.459 593.382 645.193 595.301C650.527 597.987 661.863 597.859 667.73 595.173C676.265 591.336 682.667 578.289 680.4 569.846C679.466 566.777 678.533 565.881 674.932 565.625C669.331 565.114 667.464 566.649 665.463 573.812C664.53 576.882 662.663 580.079 661.329 580.719C655.195 583.917 647.46 580.719 642.926 573.044C640.125 568.311 639.858 566.521 640.392 556.799C640.925 546.694 641.459 545.032 648.66 531.729C652.794 523.798 656.128 516.507 656.128 515.356C656.128 513.054 651.994 509.088 649.727 509.088C648.793 509.088 641.725 512.286 633.724 516.251C617.187 524.438 606.785 526.74 595.45 524.438C583.181 522.007 574.912 510.24 581.314 504.1C582.781 502.693 585.714 501.158 587.715 500.646C594.116 499.239 597.45 496.553 597.45 492.716C597.45 490.669 596.783 488.495 595.85 487.599C593.183 485.041 582.38 485.808 575.979 489.006ZM630.123 536.206C628.123 542.857 622.388 552.578 617.321 558.079C612.386 563.579 600.917 570.102 592.382 572.405C589.582 573.172 589.315 572.916 590.115 570.23C595.05 554.369 607.985 540.938 623.989 535.31C630.657 532.88 631.057 533.008 630.123 536.206Z" fill="currentColor"/>
</svg>
