<svg width="1707" height="134" viewBox="0 0 1707 134" fill="none" xmlns="http://www.w3.org/2000/svg">
<path d="M787.536 0.319071C780.736 1.51907 768.069 6.71907 762.736 10.1857C754.202 16.1857 746.469 29.2524 746.202 38.1857C746.202 44.4524 749.002 51.7857 753.802 56.9857C759.402 63.2524 765.669 64.0524 770.202 59.2524C774.336 54.7191 773.536 50.7191 767.269 44.8524L761.536 39.6524L764.202 34.7191C768.336 26.9857 775.802 22.8524 785.402 22.8524C799.002 22.9857 809.002 29.9191 815.402 43.5191C819.536 52.4524 820.069 64.4524 816.469 71.2524C811.002 81.3857 793.802 89.3857 777.536 89.3857C765.536 89.2524 755.136 86.4524 732.869 77.3857C695.936 62.1857 693.802 61.5191 677.536 61.5191C660.336 61.5191 654.869 63.3857 631.802 76.9857L618.069 85.2524L605.136 78.4524C586.469 68.7191 576.736 66.0524 556.736 65.2524C535.802 64.3191 529.802 65.5191 509.802 75.1191L494.202 82.5857L473.802 72.4524C462.736 66.8524 440.869 55.7857 425.536 47.9191C383.136 26.1857 356.069 17.2524 323.002 14.0524C289.002 10.5857 270.202 17.5191 207.536 56.1857C157.269 87.1191 149.936 90.4524 124.736 92.7191C82.7358 96.5857 45.5358 84.8524 11.1358 56.8524C-1.66424 46.4524 -2.59757 48.1857 9.80243 59.5191C42.3358 89.2524 84.6024 104.852 127.669 103.119C153.536 102.052 164.602 97.7857 214.736 69.7857C246.736 52.0524 269.802 40.5857 282.869 36.1857C304.736 28.7191 334.202 30.7191 369.136 42.1857C386.869 48.0524 408.469 58.1857 450.602 80.5857L475.802 93.9191L459.269 101.919C436.602 112.986 430.336 114.852 417.536 114.719C395.002 114.319 372.602 106.186 326.869 81.6524C284.469 58.8524 272.736 54.1857 257.669 54.1857C248.069 54.1857 238.602 58.1857 230.469 65.5191C222.736 72.4524 220.469 79.3857 221.136 93.9191C221.802 107.119 225.002 114.719 233.136 121.652C239.402 126.852 252.736 132.852 260.469 133.652C278.869 135.919 297.269 124.719 299.136 110.186C300.069 103.386 299.002 99.2524 294.736 94.3191C290.602 89.3857 285.936 88.9857 283.002 93.1191C280.069 97.2524 280.202 97.7857 285.136 102.186C288.869 105.652 289.136 106.452 287.802 109.519C287.002 111.386 284.336 114.052 281.936 115.652C276.202 119.119 265.802 118.586 259.802 114.452C254.736 110.719 248.869 99.2524 248.869 92.8524C248.869 83.1191 258.602 74.1857 269.002 74.1857C278.069 74.1857 292.069 79.7857 326.202 96.9857C371.536 119.919 395.002 127.519 419.402 127.519C425.136 127.519 433.002 126.586 437.002 125.386C445.136 122.986 465.936 112.719 479.002 104.719L487.802 99.3857L500.069 104.052C524.736 113.386 545.402 118.186 567.002 119.119C589.136 120.186 606.202 116.052 636.202 102.186C662.202 90.1857 674.736 86.8524 687.269 88.8524C696.869 90.4524 696.602 90.3191 726.602 102.319C766.202 118.186 785.002 121.786 805.536 117.652C819.269 114.852 836.069 106.719 845.402 98.0524L852.869 91.2524L860.336 98.0524C869.669 106.719 886.469 114.852 900.202 117.652C920.736 121.786 939.536 118.186 979.136 102.319C1009.14 90.3191 1008.87 90.4524 1018.47 88.8524C1027.67 87.3857 1038.74 89.2524 1051.8 94.4524C1060.87 98.0524 1062.07 98.8524 1060.6 100.719C1059.14 102.586 1059.14 102.586 1061 101.119C1062.87 99.7857 1065.8 100.586 1078.87 106.186C1104.07 116.986 1111.8 118.852 1133.54 118.852C1157 118.852 1177.8 114.719 1202.47 105.252L1211.27 101.919L1219.14 106.586C1231.27 113.919 1250.2 122.986 1258.07 125.386C1262.07 126.586 1269.94 127.519 1275.67 127.519C1300.07 127.519 1323.4 119.919 1368.87 96.9857C1403 79.7857 1417 74.1857 1426.07 74.1857C1436.47 74.1857 1446.2 83.1191 1446.2 92.8524C1446.2 99.2524 1440.34 110.719 1435.27 114.452C1429.27 118.586 1418.87 119.119 1413.14 115.652C1410.74 114.052 1408.07 111.386 1407.27 109.519C1405.94 106.452 1406.2 105.652 1409.94 102.186C1414.87 97.7857 1415 97.2524 1412.07 93.1191C1406.47 85.1191 1395.54 94.8524 1395.54 107.919C1395.54 118.852 1406.6 129.919 1420.74 132.986C1430.87 135.119 1439.94 133.652 1451.14 128.186C1467.67 120.052 1474.2 108.986 1474.2 89.6524C1474.2 78.1857 1471.4 71.2524 1464.2 64.9857C1456.2 57.9191 1446.87 54.1857 1437.4 54.1857C1422.6 54.1857 1410.2 58.9857 1370.34 80.4524C1327.54 103.519 1308.34 111.252 1285.54 114.319C1270.6 116.186 1260.87 114.052 1239.54 104.052L1224.34 96.7191L1253.54 81.2524C1299.67 56.9857 1318.47 48.1857 1336.6 42.1857C1371.54 30.8524 1401 28.7191 1422.87 36.1857C1435.94 40.5857 1459 52.0524 1491 69.7857C1541.14 97.7857 1552.2 102.052 1578.07 103.119C1621.14 104.852 1663.4 89.2524 1695.94 59.5191C1708.34 48.1857 1707.4 46.4524 1694.6 56.8524C1660.2 84.8524 1623 96.5857 1581 92.7191C1555.8 90.4524 1548.47 87.1191 1498.2 56.1857C1451.54 27.3857 1431 17.6524 1409.27 13.9191C1391.27 10.8524 1356.74 16.1857 1328.2 26.1857C1310.2 32.5857 1295.67 39.3857 1258.2 58.9857C1239.54 68.7191 1219.94 78.5857 1214.74 80.8524L1205.27 85.1191L1187.67 76.3191C1166.07 65.6524 1159.94 64.3191 1138.2 65.2524C1119.4 65.9191 1109.4 68.5857 1092.6 76.9857L1082.34 82.1857L1072.07 75.9191C1066.47 72.5857 1057.67 67.9191 1052.34 65.6524C1043.67 61.9191 1041.67 61.5191 1028.2 61.5191C1011.94 61.5191 1009.8 62.1857 972.869 77.3857C950.602 86.4524 940.202 89.2524 928.202 89.3857C911.936 89.3857 894.736 81.3857 889.269 71.2524C885.669 64.4524 886.202 52.4524 890.336 43.5191C896.736 29.9191 906.736 22.9857 920.336 22.8524C929.936 22.8524 937.402 26.9857 941.536 34.7191L944.202 39.6524L938.469 44.8524C932.202 50.7191 931.402 54.7191 935.536 59.2524C940.069 64.0524 946.336 63.2524 951.936 56.9857C961.669 46.1857 961.669 33.2524 952.069 19.3857C940.736 2.8524 912.602 -4.3476 890.202 3.38574C876.202 8.31907 861.536 18.3191 855.136 27.5191L852.869 30.7191L850.602 27.5191C844.202 18.3191 829.402 8.18574 816.069 3.6524C807.802 0.985738 793.536 -0.747595 787.536 0.319071ZM587.536 75.2524C597.402 78.3191 607.802 82.5857 611.802 85.3857C614.469 87.2524 614.336 87.3857 609.402 89.9191C586.202 101.786 555.536 102.452 520.869 92.0524C514.602 90.1857 509.136 88.1857 508.602 87.6524C507.002 86.1857 529.536 75.2524 537.936 73.2524C549.002 70.8524 576.469 71.9191 587.536 75.2524ZM1155 72.9857C1162.2 74.1857 1176.07 80.3191 1187.4 87.2524L1191.94 89.9191L1182.74 92.7191C1145.67 103.652 1111.27 100.852 1087.54 84.9857C1084.34 82.8524 1101.67 76.1857 1120.2 72.3191C1125.8 71.2524 1147.4 71.5191 1155 72.9857Z" fill="currentColor"/>
</svg>