<?xml version="1.0" encoding="UTF-8" standalone="no"?>
<!-- Created with Inkscape (http://www.inkscape.org/) -->

<svg
   width="135.9174mm"
   height="9.3942709mm"
   viewBox="0 0 135.9174 9.3942709"
   version="1.1"
   id="svg1"
   inkscape:version="1.4 (e7c3feb100, 2024-10-09)"
   sodipodi:docname="separator.svg"
   xmlns:inkscape="http://www.inkscape.org/namespaces/inkscape"
   xmlns:sodipodi="http://sodipodi.sourceforge.net/DTD/sodipodi-0.dtd"
   xmlns="http://www.w3.org/2000/svg"
   xmlns:svg="http://www.w3.org/2000/svg">
  <sodipodi:namedview
     id="namedview1"
     pagecolor="#ffffff"
     bordercolor="#666666"
     borderopacity="1.0"
     inkscape:showpageshadow="2"
     inkscape:pageopacity="0.0"
     inkscape:pagecheckerboard="0"
     inkscape:deskcolor="#d1d1d1"
     inkscape:document-units="mm"
     inkscape:zoom="0.69130191"
     inkscape:cx="390.56742"
     inkscape:cy="558.36675"
     inkscape:window-width="1501"
     inkscape:window-height="995"
     inkscape:window-x="25"
     inkscape:window-y="112"
     inkscape:window-maximized="1"
     inkscape:current-layer="layer1" />
  <defs
     id="defs1" />
  <g
     inkscape:label="Layer 1"
     inkscape:groupmode="layer"
     id="layer1"
     transform="translate(-1.4449642,-0.74482804)">
    <path
       fill-rule="evenodd"
       fill="#000000"
       fill-opacity="1"
       d="m 5.9965072,5.441386 c 0,0 16.7338888,-0.0086 38.0438318,-0.01528 8.022866,-0.0032 16.6918,-0.0052 25.363038,-0.0066 3.395498,0 6.788973,0 10.144693,0 5.215772,5.86e-4 10.336985,0.002 15.218335,0.0035 21.311105,0.0084 38.044415,0.01845 38.044415,0.01845 0.0259,0 0.0479,-0.02133 0.0479,-0.04699 0,-0.02595 -0.0219,-0.04728 -0.0479,-0.04728 0,0 -16.73331,0.01038 -38.044415,0.01845 -4.88135,0.0014 -10.002563,0.0029 -15.218335,0.0037 -3.35572,0 -6.749195,0 -10.144693,-8.64e-4 -8.671238,-8.65e-4 -17.340172,-0.0029 -25.363038,-0.0058 -21.309943,-0.0066 -38.0438318,-0.01557 -38.0438318,-0.01557 -0.02653,0 -0.04814,0.02047 -0.04814,0.04728 0,0.02566 0.02162,0.04699 0.04814,0.04699"
       id="path3"
       style="stroke-width:0.0738026" />
    <path
       fill-rule="evenodd"
       fill="#000000"
       fill-opacity="1"
       d="m 5.9965072,5.754471 c 0,0 16.7338888,-0.0089 38.0438318,-0.01614 8.022866,-0.0032 16.6918,-0.0052 25.363038,-0.0066 3.395498,0 6.788973,0 10.144693,0 5.215772,5.85e-4 10.336985,0.002 15.218335,0.0035 21.311105,0.0084 38.044415,0.01845 38.044415,0.01845 0.19258,0 0.36008,-0.161443 0.36008,-0.359211 0,-0.197768 -0.1675,-0.3595 -0.36008,-0.3595 0,0 -16.73331,0.01038 -38.044415,0.01759 -4.88135,0.0023 -10.003433,0.0037 -15.218335,0.0046 -3.35572,0 -6.749195,0 -10.144693,-8.65e-4 -8.671238,-5.86e-4 -17.340172,-0.0029 -25.363038,-0.0058 -21.309943,-0.0066 -38.0438318,-0.01557 -38.0438318,-0.01557 -0.199207,0 -0.360077,0.160002 -0.360077,0.3595 0,0.197767 0.16087,0.360075 0.360077,0.360075"
       id="path4"
       style="stroke-width:0.0738026" />
    <path
       fill-rule="evenodd"
       fill="#000000"
       fill-opacity="1"
       d="M 69.403377,0.74482804 73.84854,5.441386 69.403377,10.139099 64.958205,5.441386 69.403377,0.74482804"
       id="path50"
       style="stroke-width:0.0738026" />
    <path
       fill-rule="evenodd"
       fill="#000000"
       fill-opacity="1"
       d="m 75.219653,3.993586 1.370546,1.4478 -1.370546,1.44809 -1.370537,-1.44809 1.370537,-1.4478"
       id="path51"
       style="stroke-width:0.0738026" />
    <path
       fill-rule="evenodd"
       fill="#000000"
       fill-opacity="1"
       d="m 135.10966,3.062981 2.25271,2.378405 -2.25271,2.37956 -2.25099,-2.37956 2.25099,-2.378405"
       id="path52"
       style="stroke-width:0.0738026" />
    <path
       fill-rule="evenodd"
       fill="#000000"
       fill-opacity="1"
       d="m 3.6968102,3.062981 2.251555,2.378405 -2.251555,2.37956 -2.251846,-2.37956 2.251846,-2.378405"
       id="path53"
       style="stroke-width:0.0738026" />
    <path
       fill-rule="evenodd"
       fill="#000000"
       fill-opacity="1"
       d="m 63.587668,3.993586 1.370537,1.4478 -1.370537,1.44809 -1.370538,-1.44809 1.370538,-1.4478"
       id="path54"
       style="stroke-width:0.0738026" />
  </g>
</svg>
